{
	"asset":{
		"generator":"Khronos glTF Blender I/O v4.4.56",
		"version":"2.0"
	},
	"extensionsUsed":[
		"KHR_materials_transmission",
		"KHR_materials_specular"
	],
	"scene":0,
	"scenes":[
		{
			"name":"Scene",
			"nodes":[
				11
			]
		}
	],
	"nodes":[
		{
			"mesh":0,
			"name":"mesh_0",
			"translation":[
				-4.0499046008335426e-05,
				8.183811587514356e-06,
				1.2952835277246777e-05
			]
		},
		{
			"children":[
				0
			],
			"name":"PlaneShape_0",
			"translation":[
				-4.0499046008335426e-05,
				8.183811587514356e-06,
				1.2952835277246777e-05
			]
		},
		{
			"children":[
				1
			],
			"name":"MorphMainGroup_1",
			"translation":[
				-4.0499046008335426e-05,
				8.183811587514356e-06,
				1.2952835277246777e-05
			]
		},
		{
			"children":[
				2
			],
			"name":"Object_14_2",
			"translation":[
				-4.0499046008335426e-05,
				8.183811587514356e-06,
				1.2952835277246777e-05
			]
		},
		{
			"children":[
				3
			],
			"name":"Object_13_3",
			"rotation":[
				0,
				0.0730171650648117,
				0,
				0.9973306655883789
			],
			"translation":[
				365.2862854003906,
				-70.73152923583984,
				-213.00787353515625
			]
		},
		{
			"children":[
				4
			],
			"name":"Object_3_4"
		},
		{
			"children":[
				5
			],
			"name":"Object_2_5",
			"rotation":[
				0.70710688829422,
				0,
				0,
				0.7071066498756409
			]
		},
		{
			"children":[
				6
			],
			"name":"f814d653bbee4d4dbc628e0d057694ef.abc.cleaner.materialmerger.gle"
		},
		{
			"children":[
				7
			],
			"name":"Sketchfab_model_7",
			"rotation":[
				-0.70710688829422,
				0,
				0,
				0.7071066498756409
			],
			"scale":[
				1,
				0.48621124029159546,
				1
			]
		},
		{
			"children":[
				8
			],
			"name":"GLTF_SceneRootNode",
			"rotation":[
				0.70710688829422,
				0,
				0,
				0.7071066498756409
			]
		},
		{
			"children":[
				9
			],
			"name":"root"
		},
		{
			"children":[
				10
			],
			"name":"Sketchfab_model",
			"rotation":[
				-0.70710688829422,
				0,
				0,
				0.7071066498756409
			]
		}
	],
	"animations":[
		{
			"channels":[
				{
					"sampler":0,
					"target":{
						"node":0,
						"path":"weights"
					}
				}
			],
			"name":"Object_0",
			"samplers":[
				{
					"input":54,
					"interpolation":"LINEAR",
					"output":55
				}
			]
		}
	],
	"materials":[
		{
			"alphaMode":"BLEND",
			"doubleSided":true,
			"extensions":{
				"KHR_materials_transmission":{
					"transmissionFactor":0.4834269881248474
				},
				"KHR_materials_specular":{
					"specularFactor":0.8518121242523193
				}
			},
			"name":"PlaneShape",
			"pbrMetallicRoughness":{
				"baseColorFactor":[
					0,
					0.14221826195716858,
					0.5253397226333618,
					0.5165730118751526
				],
				"metallicFactor":0.748499870300293,
				"roughnessFactor":0.044568516314029694
			}
		}
	],
	"meshes":[
		{
			"extras":{
				"targetNames":[
					"target_0",
					"target_1",
					"target_2",
					"target_3",
					"target_4",
					"target_5",
					"target_6",
					"target_7",
					"target_8",
					"target_9",
					"target_10",
					"target_11",
					"target_12",
					"target_13",
					"target_14",
					"target_15",
					"target_16",
					"target_17",
					"target_18",
					"target_19",
					"target_20",
					"target_21",
					"target_22",
					"target_23",
					"target_24"
				]
			},
			"name":"mesh_0",
			"primitives":[
				{
					"attributes":{
						"POSITION":0,
						"NORMAL":1,
						"TEXCOORD_0":2
					},
					"indices":3,
					"material":0,
					"targets":[
						{
							"POSITION":4,
							"NORMAL":5
						},
						{
							"POSITION":6,
							"NORMAL":7
						},
						{
							"POSITION":8,
							"NORMAL":9
						},
						{
							"POSITION":10,
							"NORMAL":11
						},
						{
							"POSITION":12,
							"NORMAL":13
						},
						{
							"POSITION":14,
							"NORMAL":15
						},
						{
							"POSITION":16,
							"NORMAL":17
						},
						{
							"POSITION":18,
							"NORMAL":19
						},
						{
							"POSITION":20,
							"NORMAL":21
						},
						{
							"POSITION":22,
							"NORMAL":23
						},
						{
							"POSITION":24,
							"NORMAL":25
						},
						{
							"POSITION":26,
							"NORMAL":27
						},
						{
							"POSITION":28,
							"NORMAL":29
						},
						{
							"POSITION":30,
							"NORMAL":31
						},
						{
							"POSITION":32,
							"NORMAL":33
						},
						{
							"POSITION":34,
							"NORMAL":35
						},
						{
							"POSITION":36,
							"NORMAL":37
						},
						{
							"POSITION":38,
							"NORMAL":39
						},
						{
							"POSITION":40,
							"NORMAL":41
						},
						{
							"POSITION":42,
							"NORMAL":43
						},
						{
							"POSITION":44,
							"NORMAL":45
						},
						{
							"POSITION":46,
							"NORMAL":47
						},
						{
							"POSITION":48,
							"NORMAL":49
						},
						{
							"POSITION":50,
							"NORMAL":51
						},
						{
							"POSITION":52,
							"NORMAL":53
						}
					]
				}
			],
			"weights":[
				0,
				0,
				0,
				0,
				0,
				0,
				0,
				0,
				0,
				0,
				0,
				0,
				0,
				0,
				0,
				0,
				0,
				0,
				0,
				0,
				0,
				0,
				0,
				0,
				0
			]
		}
	],
	"accessors":[
		{
			"bufferView":0,
			"componentType":5126,
			"count":1891,
			"max":[
				800.0027465820312,
				3.68251895904541,
				355.6166076660156
			],
			"min":[
				-800.002685546875,
				-3.5430960655212402,
				-355.61663818359375
			],
			"type":"VEC3"
		},
		{
			"bufferView":1,
			"componentType":5126,
			"count":1891,
			"type":"VEC3"
		},
		{
			"bufferView":2,
			"componentType":5126,
			"count":1891,
			"type":"VEC2"
		},
		{
			"bufferView":3,
			"componentType":5123,
			"count":10800,
			"type":"SCALAR"
		},
		{
			"bufferView":4,
			"componentType":5126,
			"count":1891,
			"max":[
				0,
				0.5210492610931396,
				0
			],
			"min":[
				0,
				-0.47069433331489563,
				0
			],
			"type":"VEC3"
		},
		{
			"bufferView":5,
			"componentType":5126,
			"count":1891,
			"type":"VEC3"
		},
		{
			"bufferView":6,
			"componentType":5126,
			"count":1891,
			"max":[
				0,
				1.125261664390564,
				0
			],
			"min":[
				0,
				-1.0532214641571045,
				0
			],
			"type":"VEC3"
		},
		{
			"bufferView":7,
			"componentType":5126,
			"count":1891,
			"type":"VEC3"
		},
		{
			"bufferView":8,
			"componentType":5126,
			"count":1891,
			"max":[
				0,
				1.7356473207473755,
				0
			],
			"min":[
				0,
				-1.6568198204040527,
				0
			],
			"type":"VEC3"
		},
		{
			"bufferView":9,
			"componentType":5126,
			"count":1891,
			"type":"VEC3"
		},
		{
			"bufferView":10,
			"componentType":5126,
			"count":1891,
			"max":[
				0,
				2.2906222343444824,
				0
			],
			"min":[
				0,
				-2.214954376220703,
				0
			],
			"type":"VEC3"
		},
		{
			"bufferView":11,
			"componentType":5126,
			"count":1891,
			"type":"VEC3"
		},
		{
			"bufferView":12,
			"componentType":5126,
			"count":1891,
			"max":[
				0,
				2.8386528491973877,
				0
			],
			"min":[
				0,
				-2.8244333267211914,
				0
			],
			"type":"VEC3"
		},
		{
			"bufferView":13,
			"componentType":5126,
			"count":1891,
			"type":"VEC3"
		},
		{
			"bufferView":14,
			"componentType":5126,
			"count":1891,
			"max":[
				0,
				3.3800203800201416,
				0
			],
			"min":[
				0,
				-3.356973648071289,
				0
			],
			"type":"VEC3"
		},
		{
			"bufferView":15,
			"componentType":5126,
			"count":1891,
			"type":"VEC3"
		},
		{
			"bufferView":16,
			"componentType":5126,
			"count":1891,
			"max":[
				0,
				3.860992431640625,
				0
			],
			"min":[
				0,
				-3.9397432804107666,
				0
			],
			"type":"VEC3"
		},
		{
			"bufferView":17,
			"componentType":5126,
			"count":1891,
			"type":"VEC3"
		},
		{
			"bufferView":18,
			"componentType":5126,
			"count":1891,
			"max":[
				0,
				4.407610893249512,
				0
			],
			"min":[
				0,
				-4.405442237854004,
				0
			],
			"type":"VEC3"
		},
		{
			"bufferView":19,
			"componentType":5126,
			"count":1891,
			"type":"VEC3"
		},
		{
			"bufferView":20,
			"componentType":5126,
			"count":1891,
			"max":[
				0,
				4.939334869384766,
				0
			],
			"min":[
				0,
				-4.729074001312256,
				0
			],
			"type":"VEC3"
		},
		{
			"bufferView":21,
			"componentType":5126,
			"count":1891,
			"type":"VEC3"
		},
		{
			"bufferView":22,
			"componentType":5126,
			"count":1891,
			"max":[
				0,
				5.451167106628418,
				0
			],
			"min":[
				0,
				-4.895151138305664,
				0
			],
			"type":"VEC3"
		},
		{
			"bufferView":23,
			"componentType":5126,
			"count":1891,
			"type":"VEC3"
		},
		{
			"bufferView":24,
			"componentType":5126,
			"count":1891,
			"max":[
				0,
				5.82271146774292,
				0
			],
			"min":[
				0,
				-4.897697925567627,
				0
			],
			"type":"VEC3"
		},
		{
			"bufferView":25,
			"componentType":5126,
			"count":1891,
			"type":"VEC3"
		},
		{
			"bufferView":26,
			"componentType":5126,
			"count":1891,
			"max":[
				0,
				6.01951265335083,
				0
			],
			"min":[
				0,
				-4.795990467071533,
				0
			],
			"type":"VEC3"
		},
		{
			"bufferView":27,
			"componentType":5126,
			"count":1891,
			"type":"VEC3"
		},
		{
			"bufferView":28,
			"componentType":5126,
			"count":1891,
			"max":[
				0,
				6.007595062255859,
				0
			],
			"min":[
				0,
				-4.971107006072998,
				0
			],
			"type":"VEC3"
		},
		{
			"bufferView":29,
			"componentType":5126,
			"count":1891,
			"type":"VEC3"
		},
		{
			"bufferView":30,
			"componentType":5126,
			"count":1891,
			"max":[
				0,
				5.780601978302002,
				0
			],
			"min":[
				0,
				-4.990104675292969,
				0
			],
			"type":"VEC3"
		},
		{
			"bufferView":31,
			"componentType":5126,
			"count":1891,
			"type":"VEC3"
		},
		{
			"bufferView":32,
			"componentType":5126,
			"count":1891,
			"max":[
				0,
				5.375704765319824,
				0
			],
			"min":[
				0,
				-4.862548828125,
				0
			],
			"type":"VEC3"
		},
		{
			"bufferView":33,
			"componentType":5126,
			"count":1891,
			"type":"VEC3"
		},
		{
			"bufferView":34,
			"componentType":5126,
			"count":1891,
			"max":[
				0,
				4.832690238952637,
				0
			],
			"min":[
				0,
				-4.594542503356934,
				0
			],
			"type":"VEC3"
		},
		{
			"bufferView":35,
			"componentType":5126,
			"count":1891,
			"type":"VEC3"
		},
		{
			"bufferView":36,
			"componentType":5126,
			"count":1891,
			"max":[
				0,
				4.1907501220703125,
				0
			],
			"min":[
				0,
				-4.198516368865967,
				0
			],
			"type":"VEC3"
		},
		{
			"bufferView":37,
			"componentType":5126,
			"count":1891,
			"type":"VEC3"
		},
		{
			"bufferView":38,
			"componentType":5126,
			"count":1891,
			"max":[
				0,
				3.7753453254699707,
				0
			],
			"min":[
				0,
				-3.6932225227355957,
				0
			],
			"type":"VEC3"
		},
		{
			"bufferView":39,
			"componentType":5126,
			"count":1891,
			"type":"VEC3"
		},
		{
			"bufferView":40,
			"componentType":5126,
			"count":1891,
			"max":[
				0,
				3.3894786834716797,
				0
			],
			"min":[
				0,
				-3.1037380695343018,
				0
			],
			"type":"VEC3"
		},
		{
			"bufferView":41,
			"componentType":5126,
			"count":1891,
			"type":"VEC3"
		},
		{
			"bufferView":42,
			"componentType":5126,
			"count":1891,
			"max":[
				0,
				2.878891944885254,
				0
			],
			"min":[
				0,
				-2.5477960109710693,
				0
			],
			"type":"VEC3"
		},
		{
			"bufferView":43,
			"componentType":5126,
			"count":1891,
			"type":"VEC3"
		},
		{
			"bufferView":44,
			"componentType":5126,
			"count":1891,
			"max":[
				0,
				2.345585584640503,
				0
			],
			"min":[
				0,
				-2.013068199157715,
				0
			],
			"type":"VEC3"
		},
		{
			"bufferView":45,
			"componentType":5126,
			"count":1891,
			"type":"VEC3"
		},
		{
			"bufferView":46,
			"componentType":5126,
			"count":1891,
			"max":[
				0,
				1.767829179763794,
				0
			],
			"min":[
				0,
				-1.5525120496749878,
				0
			],
			"type":"VEC3"
		},
		{
			"bufferView":47,
			"componentType":5126,
			"count":1891,
			"type":"VEC3"
		},
		{
			"bufferView":48,
			"componentType":5126,
			"count":1891,
			"max":[
				0,
				1.1287341117858887,
				0
			],
			"min":[
				0,
				-1.0205613374710083,
				0
			],
			"type":"VEC3"
		},
		{
			"bufferView":49,
			"componentType":5126,
			"count":1891,
			"type":"VEC3"
		},
		{
			"bufferView":50,
			"componentType":5126,
			"count":1891,
			"max":[
				0,
				0.5068943500518799,
				0
			],
			"min":[
				0,
				-0.4775651693344116,
				0
			],
			"type":"VEC3"
		},
		{
			"bufferView":51,
			"componentType":5126,
			"count":1891,
			"type":"VEC3"
		},
		{
			"componentType":5126,
			"count":1891,
			"max":[
				0,
				0,
				0
			],
			"min":[
				0,
				0,
				0
			],
			"sparse":{
				"count":1,
				"indices":{
					"bufferView":52,
					"componentType":5121
				},
				"values":{
					"bufferView":53
				}
			},
			"type":"VEC3"
		},
		{
			"bufferView":54,
			"componentType":5126,
			"count":1891,
			"type":"VEC3"
		},
		{
			"bufferView":55,
			"componentType":5126,
			"count":30,
			"max":[
				1.2083333333333333
			],
			"min":[
				0
			],
			"type":"SCALAR"
		},
		{
			"bufferView":56,
			"componentType":5126,
			"count":750,
			"type":"SCALAR"
		}
	],
	"bufferViews":[
		{
			"buffer":0,
			"byteLength":22692,
			"byteOffset":0,
			"target":34962
		},
		{
			"buffer":0,
			"byteLength":22692,
			"byteOffset":22692,
			"target":34962
		},
		{
			"buffer":0,
			"byteLength":15128,
			"byteOffset":45384,
			"target":34962
		},
		{
			"buffer":0,
			"byteLength":21600,
			"byteOffset":60512,
			"target":34963
		},
		{
			"buffer":0,
			"byteLength":22692,
			"byteOffset":82112,
			"target":34962
		},
		{
			"buffer":0,
			"byteLength":22692,
			"byteOffset":104804,
			"target":34962
		},
		{
			"buffer":0,
			"byteLength":22692,
			"byteOffset":127496,
			"target":34962
		},
		{
			"buffer":0,
			"byteLength":22692,
			"byteOffset":150188,
			"target":34962
		},
		{
			"buffer":0,
			"byteLength":22692,
			"byteOffset":172880,
			"target":34962
		},
		{
			"buffer":0,
			"byteLength":22692,
			"byteOffset":195572,
			"target":34962
		},
		{
			"buffer":0,
			"byteLength":22692,
			"byteOffset":218264,
			"target":34962
		},
		{
			"buffer":0,
			"byteLength":22692,
			"byteOffset":240956,
			"target":34962
		},
		{
			"buffer":0,
			"byteLength":22692,
			"byteOffset":263648,
			"target":34962
		},
		{
			"buffer":0,
			"byteLength":22692,
			"byteOffset":286340,
			"target":34962
		},
		{
			"buffer":0,
			"byteLength":22692,
			"byteOffset":309032,
			"target":34962
		},
		{
			"buffer":0,
			"byteLength":22692,
			"byteOffset":331724,
			"target":34962
		},
		{
			"buffer":0,
			"byteLength":22692,
			"byteOffset":354416,
			"target":34962
		},
		{
			"buffer":0,
			"byteLength":22692,
			"byteOffset":377108,
			"target":34962
		},
		{
			"buffer":0,
			"byteLength":22692,
			"byteOffset":399800,
			"target":34962
		},
		{
			"buffer":0,
			"byteLength":22692,
			"byteOffset":422492,
			"target":34962
		},
		{
			"buffer":0,
			"byteLength":22692,
			"byteOffset":445184,
			"target":34962
		},
		{
			"buffer":0,
			"byteLength":22692,
			"byteOffset":467876,
			"target":34962
		},
		{
			"buffer":0,
			"byteLength":22692,
			"byteOffset":490568,
			"target":34962
		},
		{
			"buffer":0,
			"byteLength":22692,
			"byteOffset":513260,
			"target":34962
		},
		{
			"buffer":0,
			"byteLength":22692,
			"byteOffset":535952,
			"target":34962
		},
		{
			"buffer":0,
			"byteLength":22692,
			"byteOffset":558644,
			"target":34962
		},
		{
			"buffer":0,
			"byteLength":22692,
			"byteOffset":581336,
			"target":34962
		},
		{
			"buffer":0,
			"byteLength":22692,
			"byteOffset":604028,
			"target":34962
		},
		{
			"buffer":0,
			"byteLength":22692,
			"byteOffset":626720,
			"target":34962
		},
		{
			"buffer":0,
			"byteLength":22692,
			"byteOffset":649412,
			"target":34962
		},
		{
			"buffer":0,
			"byteLength":22692,
			"byteOffset":672104,
			"target":34962
		},
		{
			"buffer":0,
			"byteLength":22692,
			"byteOffset":694796,
			"target":34962
		},
		{
			"buffer":0,
			"byteLength":22692,
			"byteOffset":717488,
			"target":34962
		},
		{
			"buffer":0,
			"byteLength":22692,
			"byteOffset":740180,
			"target":34962
		},
		{
			"buffer":0,
			"byteLength":22692,
			"byteOffset":762872,
			"target":34962
		},
		{
			"buffer":0,
			"byteLength":22692,
			"byteOffset":785564,
			"target":34962
		},
		{
			"buffer":0,
			"byteLength":22692,
			"byteOffset":808256,
			"target":34962
		},
		{
			"buffer":0,
			"byteLength":22692,
			"byteOffset":830948,
			"target":34962
		},
		{
			"buffer":0,
			"byteLength":22692,
			"byteOffset":853640,
			"target":34962
		},
		{
			"buffer":0,
			"byteLength":22692,
			"byteOffset":876332,
			"target":34962
		},
		{
			"buffer":0,
			"byteLength":22692,
			"byteOffset":899024,
			"target":34962
		},
		{
			"buffer":0,
			"byteLength":22692,
			"byteOffset":921716,
			"target":34962
		},
		{
			"buffer":0,
			"byteLength":22692,
			"byteOffset":944408,
			"target":34962
		},
		{
			"buffer":0,
			"byteLength":22692,
			"byteOffset":967100,
			"target":34962
		},
		{
			"buffer":0,
			"byteLength":22692,
			"byteOffset":989792,
			"target":34962
		},
		{
			"buffer":0,
			"byteLength":22692,
			"byteOffset":1012484,
			"target":34962
		},
		{
			"buffer":0,
			"byteLength":22692,
			"byteOffset":1035176,
			"target":34962
		},
		{
			"buffer":0,
			"byteLength":22692,
			"byteOffset":1057868,
			"target":34962
		},
		{
			"buffer":0,
			"byteLength":22692,
			"byteOffset":1080560,
			"target":34962
		},
		{
			"buffer":0,
			"byteLength":22692,
			"byteOffset":1103252,
			"target":34962
		},
		{
			"buffer":0,
			"byteLength":22692,
			"byteOffset":1125944,
			"target":34962
		},
		{
			"buffer":0,
			"byteLength":22692,
			"byteOffset":1148636,
			"target":34962
		},
		{
			"buffer":0,
			"byteLength":1,
			"byteOffset":1171328
		},
		{
			"buffer":0,
			"byteLength":12,
			"byteOffset":1171332
		},
		{
			"buffer":0,
			"byteLength":22692,
			"byteOffset":1171344,
			"target":34962
		},
		{
			"buffer":0,
			"byteLength":120,
			"byteOffset":1194036
		},
		{
			"buffer":0,
			"byteLength":3000,
			"byteOffset":1194156
		}
	],
	"buffers":[
		{
			"byteLength":1197156,
			"uri":"zeminwave.bin"
		}
	]
}
